<svg width="34" height="36" viewBox="0 0 34 36" fill="none" xmlns="http://www.w3.org/2000/svg">
<path d="M29.9966 12.4768L29.9965 12.4768L29.9968 12.4887C30.0825 15.9208 28.4388 19.716 26.1958 23.3285C23.9607 26.9281 21.1801 30.2704 19.0806 32.7932L19.0806 32.7932L19.0776 32.7968C18.303 33.7279 17.6271 34.5404 17.0835 35.2368C16.9637 35.3901 16.7492 35.5 16.5 35.5C16.2519 35.5 16.0369 35.3903 15.9161 35.2362C15.374 34.5416 14.6964 33.7274 13.9194 32.7938C11.8196 30.2704 9.03847 26.9274 6.80324 23.3269C4.56003 19.7136 2.9165 15.9177 3.00328 12.485L3.00343 12.485L3.00344 12.4727C3.00551 9.301 4.39434 6.30419 6.93967 4.03374C9.49022 1.75927 12.8834 0.5 16.5 0.5C23.9914 0.5 29.9898 5.92469 29.9966 12.4768ZM16.1101 34.5493L16.5004 35.0357L16.8903 34.549C17.3451 33.9812 17.8703 33.3498 18.4608 32.6399L18.5289 32.5581L18.529 32.558L18.5376 32.5477C20.5684 30.1072 23.3048 26.8187 25.5118 23.3011C27.7111 19.7959 29.4393 15.9803 29.3521 12.4956V12.4852V12.4851C29.3498 6.08212 23.5302 0.967981 16.5 0.967981C13.0909 0.967981 9.86989 2.15577 7.43703 4.32582C5.00322 6.49672 3.64798 9.39322 3.64798 12.4814V12.4917C3.5593 15.9771 5.2872 19.7937 7.48662 23.2997C9.69553 26.8209 12.4352 30.1125 14.4672 32.5539L14.4712 32.5587L14.4712 32.5588L14.4735 32.5615C15.0913 33.3041 15.639 33.9622 16.1101 34.5493Z" fill="white" stroke="white"/>
<path d="M8.65088 12.215C8.65088 8.43622 12.1172 5.26624 16.4992 5.26624C20.8811 5.26624 24.3475 8.4356 24.3475 12.215C24.3475 15.9938 20.8818 19.1638 16.4992 19.1638C12.1165 19.1638 8.65088 15.9938 8.65088 12.215ZM9.29541 12.2144C9.29541 15.8405 12.5819 18.6958 16.4992 18.6958C20.4164 18.6958 23.7029 15.8405 23.7029 12.2144C23.7029 8.58818 20.4164 5.73293 16.4992 5.73293C12.5819 5.73293 9.29541 8.58818 9.29541 12.2144Z" fill="white" stroke="white"/>
</svg>
