<svg width="34" height="29" viewBox="0 0 34 29" fill="none" xmlns="http://www.w3.org/2000/svg">
<path d="M22.288 28.3158C18.7739 28.3158 15.1427 26.5527 9.75439 21.6159C4.6004 16.4441 1.08631 7.74604 4.13185 2.80931C4.95181 1.39881 6.35744 0.576024 7.88021 0.340941C9.05157 0.2234 10.6915 0.458483 12.5657 2.33914C14.0884 3.86718 14.7913 5.27768 14.6741 6.57063C14.6741 7.74604 14.0884 8.68638 13.0342 9.62671C12.2142 10.4495 11.7457 11.0372 11.7457 11.6249C11.7457 12.0951 11.98 12.6828 12.6828 13.2705C14.4398 15.1512 16.0798 16.6792 17.134 17.7371C17.4854 18.0897 17.8368 18.4423 18.0711 18.5599C19.1253 19.6177 19.8281 19.8528 21.2338 18.5599C23.8108 15.974 26.2706 15.974 28.8476 18.5599C30.4875 20.0879 31.1903 21.9686 30.9561 23.6141C30.8389 24.672 30.1361 26.0825 27.9105 27.0228H27.7934C25.8021 27.8456 24.045 28.3158 22.288 28.3158ZM8.34875 2.57422C8.23162 2.57422 8.23162 2.57422 8.11448 2.57422C7.41167 2.69177 6.59171 3.16193 6.12317 3.98472C3.66331 7.74604 6.94312 15.3862 11.3943 19.8528C18.5396 26.4351 21.8195 26.7878 26.8563 25.0246C27.7934 24.5545 28.3791 23.9668 28.4962 23.3791C28.6134 22.4387 28.1448 21.2633 27.0906 20.323C25.5678 18.9125 24.6307 18.4423 22.7565 20.323C21.2338 21.7335 19.0082 23.0264 16.3141 20.323C16.0798 20.0879 15.8455 19.8528 15.4941 19.5002C14.3227 18.4423 12.6828 16.7967 10.9258 14.9161C9.87153 13.7407 9.40298 12.6828 9.40298 11.5074C9.52012 9.97933 10.5743 8.68638 11.6286 7.86359C12.2142 7.39342 12.4485 6.92325 12.4485 6.45309C12.4485 5.74784 11.98 4.92505 10.9258 3.86718C10.3401 3.27947 9.40298 2.57422 8.34875 2.57422Z" fill="white"/>
</svg>
