<svg width="225" height="97" viewBox="0 0 225 97" fill="none" xmlns="http://www.w3.org/2000/svg">
<path fill-rule="evenodd" clip-rule="evenodd" d="M70.9531 33.5068C70.9531 35.1389 69.631 36.4599 68.0007 36.4599C66.3704 36.4599 65.0483 35.1389 65.0483 33.5068C65.0483 31.8761 66.3704 30.5538 68.0007 30.5538C69.631 30.5538 70.9531 31.8761 70.9531 33.5068ZM85.1387 14.4386C85.1387 16.8847 83.1556 18.8682 80.7101 18.8682C78.2646 18.8682 76.2829 16.8847 76.2829 14.4386C76.2829 11.9926 78.2646 10.009 80.7101 10.009C83.1556 10.009 85.1387 11.9926 85.1387 14.4386ZM97.8483 20.7949C97.8483 23.241 95.8652 25.2245 93.4197 25.2245C90.9742 25.2245 88.9911 23.241 88.9911 20.7949C88.9911 18.3488 90.9742 16.3653 93.4197 16.3653C95.8652 16.3653 97.8483 18.3488 97.8483 20.7949ZM110.557 27.1505C110.557 29.5979 108.574 31.5801 106.13 31.5801C103.683 31.5801 101.701 29.5979 101.701 27.1505C101.701 24.7045 103.683 22.7222 106.13 22.7222C108.574 22.7222 110.557 24.7045 110.557 27.1505ZM97.8483 33.5072C97.8483 35.9533 95.8652 37.9368 93.4197 37.9368C90.9742 37.9368 88.9911 35.9533 88.9911 33.5072C88.9911 31.0611 90.9742 29.0776 93.4197 29.0776C95.8652 29.0776 97.8483 31.0611 97.8483 33.5072ZM123.266 33.5072C123.266 35.9533 121.283 37.9368 118.838 37.9368C116.392 37.9368 114.409 35.9533 114.409 33.5072C114.409 31.0611 116.392 29.0776 118.838 29.0776C121.283 29.0776 123.266 31.0611 123.266 33.5072ZM121.79 46.2191C121.79 47.8498 120.468 49.1722 118.838 49.1722C117.207 49.1722 115.885 47.8498 115.885 46.2191C115.885 44.5884 117.207 43.2661 118.838 43.2661C120.468 43.2661 121.79 44.5884 121.79 46.2191ZM134.5 39.8631C134.5 41.4938 133.178 42.8162 131.548 42.8162C129.918 42.8162 128.595 41.4938 128.595 39.8631C128.595 38.2324 129.918 36.91 131.548 36.91C133.178 36.91 134.5 38.2324 134.5 39.8631ZM135.976 27.1509C135.976 29.597 133.992 31.5792 131.548 31.5792C129.104 31.5792 127.119 29.597 127.119 27.1509C127.119 24.7049 129.104 22.7226 131.548 22.7226C133.992 22.7226 135.976 24.7049 135.976 27.1509ZM123.266 20.7947C123.266 23.2407 121.283 25.2243 118.838 25.2243C116.392 25.2243 114.409 23.2407 114.409 20.7947C114.409 18.3486 116.392 16.3651 118.838 16.3651C121.283 16.3651 123.266 18.3486 123.266 20.7947ZM109.082 39.8631C109.082 41.4938 107.76 42.8162 106.129 42.8162C104.499 42.8162 103.176 41.4938 103.176 39.8631C103.176 38.2324 104.499 36.91 106.129 36.91C107.76 36.91 109.082 38.2324 109.082 39.8631ZM135.976 14.4384C135.976 16.8845 133.993 18.868 131.548 18.868C129.104 18.868 127.119 16.8845 127.119 14.4384C127.119 11.9923 129.104 10.0088 131.548 10.0088C133.993 10.0088 135.976 11.9923 135.976 14.4384ZM147.21 8.0821C147.21 9.71282 145.888 11.0352 144.257 11.0352C142.626 11.0352 141.305 9.71282 141.305 8.0821C141.305 6.45138 142.626 5.12903 144.257 5.12903C145.888 5.12903 147.21 6.45138 147.21 8.0821ZM147.21 33.5072C147.21 35.1379 145.888 36.4603 144.257 36.4603C142.627 36.4603 141.305 35.1379 141.305 33.5072C141.305 31.8765 142.627 30.5541 144.257 30.5541C145.888 30.5541 147.21 31.8765 147.21 33.5072ZM109.082 14.4386C109.082 16.0694 107.76 17.3917 106.129 17.3917C104.499 17.3917 103.176 16.0694 103.176 14.4386C103.176 12.8079 104.499 11.4856 106.129 11.4856C107.76 11.4856 109.082 12.8079 109.082 14.4386ZM96.3722 46.2194C96.3722 47.8501 95.0502 49.1725 93.4198 49.1725C91.7895 49.1725 90.4675 47.8501 90.4675 46.2194C90.4675 44.5887 91.7895 43.2663 93.4198 43.2663C95.0502 43.2663 96.3722 44.5887 96.3722 46.2194ZM85.1387 27.1505C85.1387 29.5966 83.1556 31.5801 80.7101 31.5801C78.2646 31.5801 76.2829 29.5966 76.2829 27.1505C76.2829 24.7045 78.2646 22.7222 80.7101 22.7222C83.1556 22.7222 85.1387 24.7045 85.1387 27.1505Z" fill="white"/>
<path fill-rule="evenodd" clip-rule="evenodd" d="M72.429 20.7947C72.429 23.2408 70.446 25.2243 68.0005 25.2243C65.5563 25.2243 63.5732 23.2408 63.5732 20.7947C63.5732 18.3486 65.5563 16.3651 68.0005 16.3651C70.446 16.3651 72.429 18.3486 72.429 20.7947Z" fill="#EC1947"/>
<path fill-rule="evenodd" clip-rule="evenodd" d="M57.0173 39.8631C57.0173 40.817 56.2439 41.5892 55.2916 41.5892C54.338 41.5892 53.5659 40.817 53.5659 39.8631C53.5659 38.9106 54.338 38.137 55.2916 38.137C56.2439 38.137 57.0173 38.9106 57.0173 39.8631ZM57.0173 27.151C57.0173 28.1035 56.2439 28.8771 55.2916 28.8771C54.338 28.8771 53.5659 28.1035 53.5659 27.151C53.5659 26.1971 54.338 25.4249 55.2916 25.4249C56.2439 25.4249 57.0173 26.1971 57.0173 27.151ZM82.4358 39.7735C82.4358 40.7274 81.6637 41.4996 80.7101 41.4996C79.7578 41.4996 78.9844 40.7274 78.9844 39.7735C78.9844 38.8209 79.7578 38.0474 80.7101 38.0474C81.6637 38.0474 82.4358 38.8209 82.4358 39.7735ZM82.4358 1.72611C82.4358 2.67997 81.6637 3.45221 80.7101 3.45221C79.7564 3.45221 78.9844 2.67997 78.9844 1.72611C78.9844 0.77224 79.7564 0 80.7101 0C81.6637 0 82.4358 0.77224 82.4358 1.72611ZM107.765 52.5758C107.765 53.5284 106.993 54.3019 106.039 54.3019C105.086 54.3019 104.314 53.5284 104.314 52.5758C104.314 51.6233 105.086 50.8497 106.039 50.8497C106.993 50.8497 107.765 51.6233 107.765 52.5758ZM69.7269 8.08213C69.7269 9.03469 68.9548 9.80823 68.0012 9.80823C67.0475 9.80823 66.2742 9.03469 66.2742 8.08213C66.2742 7.12826 67.0475 6.35602 68.0012 6.35602C68.9548 6.35602 69.7269 7.12826 69.7269 8.08213ZM95.1453 8.08213C95.1453 9.03469 94.372 9.80823 93.4196 9.80823C92.466 9.80823 91.6939 9.03469 91.6939 8.08213C91.6939 7.12826 92.466 6.35602 93.4196 6.35602C94.372 6.35602 95.1453 7.12826 95.1453 8.08213Z" fill="white"/>
<path fill-rule="evenodd" clip-rule="evenodd" d="M107.765 52.5758C107.765 53.5284 106.993 54.3019 106.039 54.3019C105.086 54.3019 104.314 53.5284 104.314 52.5758C104.314 51.6232 105.086 50.8497 106.039 50.8497C106.993 50.8497 107.765 51.6232 107.765 52.5758ZM171.402 20.7947C171.402 21.7472 170.629 22.5208 169.677 22.5208C168.723 22.5208 167.95 21.7472 167.95 20.7947C167.95 19.8421 168.723 19.0686 169.677 19.0686C170.629 19.0686 171.402 19.8421 171.402 20.7947ZM145.983 46.2191C145.983 47.173 145.211 47.9452 144.257 47.9452C143.305 47.9452 142.532 47.173 142.532 46.2191C142.532 45.2666 143.305 44.493 144.257 44.493C145.211 44.493 145.983 45.2666 145.983 46.2191ZM161.395 14.4386C161.395 16.8847 159.412 18.8669 156.966 18.8669C154.521 18.8669 152.539 16.8847 152.539 14.4386C152.539 11.9926 154.521 10.0103 156.966 10.0103C159.412 10.0103 161.395 11.9926 161.395 14.4386ZM148.686 20.7949C148.686 23.241 146.703 25.2232 144.257 25.2232C141.812 25.2232 139.829 23.241 139.829 20.7949C139.829 18.3488 141.812 16.3653 144.257 16.3653C146.703 16.3653 148.686 18.3488 148.686 20.7949ZM158.692 39.8631C158.692 40.817 157.92 41.5892 156.966 41.5892C156.013 41.5892 155.241 40.817 155.241 39.8631C155.241 38.9105 156.013 38.137 156.966 38.137C157.92 38.137 158.692 38.9105 158.692 39.8631ZM159.919 27.1509C159.919 28.7817 158.598 30.104 156.966 30.104C155.336 30.104 154.014 28.7817 154.014 27.1509C154.014 25.5202 155.336 24.1979 156.966 24.1979C158.598 24.1979 159.919 25.5202 159.919 27.1509ZM120.563 8.0821C120.563 9.03466 119.791 9.80821 118.838 9.80821C117.884 9.80821 117.112 9.03466 117.112 8.0821C117.112 7.12823 117.884 6.35599 118.838 6.35599C119.791 6.35599 120.563 7.12823 120.563 8.0821ZM158.692 1.72647C158.692 2.67903 157.92 3.45258 156.968 3.45258C156.013 3.45258 155.241 2.67903 155.241 1.72647C155.241 0.772606 156.013 0.000366211 156.968 0.000366211C157.92 0.000366211 158.692 0.772606 158.692 1.72647ZM171.402 8.0821C171.402 9.03466 170.629 9.80821 169.677 9.80821C168.723 9.80821 167.95 9.03466 167.95 8.0821C167.95 7.12823 168.723 6.35599 169.677 6.35599C170.629 6.35599 171.402 7.12823 171.402 8.0821ZM11.9277 83.6227C12.1576 83.0687 12.2007 82.6153 12.057 82.2769C11.946 82.0181 11.7265 81.8234 11.4025 81.698C10.6148 81.4092 9.98775 81.7855 9.56972 82.8021L6.62388 89.947L2.56241 82.6506C2.32204 82.1984 2.03334 81.8927 1.70283 81.7424C1.3671 81.5882 0.99609 81.6118 0.60157 81.8169C0.234483 82.0221 0.0346106 82.3383 0.00456434 82.7564C-0.0241755 83.1628 0.0829458 83.5692 0.322009 83.9625L5.3136 92.6387C5.09283 93.2097 4.85638 93.6409 4.61209 93.9193C4.36911 94.1963 4.08824 94.3309 3.75251 94.3309C3.60097 94.3309 3.45988 94.3165 3.32925 94.289C3.19861 94.2616 3.04446 94.2132 2.87071 94.1427C2.68521 94.0695 2.55719 94.0251 2.48926 94.012C1.7381 93.7664 1.22601 93.9781 0.980414 94.6249C0.704772 95.3579 0.971269 95.9524 1.77337 96.3902C2.29984 96.6829 3.0105 96.8318 3.88184 96.8318C4.85115 96.8318 5.65979 96.4633 6.28423 95.7355C6.89691 95.0208 7.55009 93.8578 8.22548 92.2794L11.9277 83.6227ZM15.9794 96.6167C16.4039 96.6167 16.7436 96.4848 16.9892 96.2234C17.2348 95.9634 17.3589 95.625 17.3589 95.2147V90.1788H24.0278V95.2147C24.0278 95.6237 24.148 95.9634 24.3845 96.2221C24.6222 96.4835 24.9671 96.6167 25.4074 96.6167C25.8319 96.6167 26.1729 96.4848 26.4185 96.2221C26.6628 95.9634 26.7856 95.6237 26.7856 95.2147V83.0078C26.7856 82.5988 26.6628 82.2565 26.4198 81.9899C26.1729 81.7207 25.8319 81.5848 25.4074 81.5848C24.9671 81.5848 24.6222 81.722 24.3832 81.9912C24.1467 82.2578 24.0278 82.5988 24.0278 83.0078V87.7H17.3589V83.0078C17.3589 82.5988 17.2348 82.2565 16.9905 81.9899C16.7449 81.7207 16.4052 81.5848 15.9794 81.5848C15.5391 81.5848 15.1942 81.722 14.9552 81.9912C14.7187 82.2578 14.5999 82.6001 14.5999 83.0078V95.2147C14.5999 95.6237 14.72 95.9621 14.9565 96.2221C15.1942 96.4835 15.5391 96.6167 15.9794 96.6167ZM32.0154 96.6167C32.4583 96.6167 32.8868 96.3515 33.2918 95.8275L40.1279 86.4848V95.2147C40.1279 95.6093 40.2481 95.9438 40.4833 96.2104C40.7223 96.4795 41.075 96.6167 41.5296 96.6167C41.9699 96.6167 42.3108 96.4835 42.5434 96.2208C42.7707 95.9621 42.887 95.6237 42.887 95.2147V83.0078C42.887 82.0631 42.4441 81.5848 41.5728 81.5848C41.0711 81.5848 40.627 81.8436 40.2533 82.3532L33.459 91.7572V83.0078C33.459 82.6001 33.3401 82.2578 33.1036 81.9912C32.8646 81.722 32.5197 81.5848 32.0795 81.5848C31.6248 81.5848 31.276 81.722 31.0448 81.9925C30.8162 82.2591 30.6999 82.6001 30.6999 83.0078V95.2147C30.6999 95.6524 30.8175 95.9987 31.0461 96.2443C31.2787 96.4913 31.6052 96.6167 32.0154 96.6167ZM54.2127 93.8934C53.6915 94.241 52.9011 94.4174 51.8612 94.4174C50.9285 94.4174 50.1186 94.3768 49.4523 94.2971V89.9851H51.8403C53.9527 89.9851 54.9808 90.7038 54.9808 92.179C54.9808 92.9774 54.7222 93.5536 54.2127 93.8934ZM51.5595 87.8723H49.4523V83.9052C50.1055 83.8399 50.7417 83.8059 51.3452 83.8059C53.3139 83.8059 54.2702 84.4331 54.2702 85.7202C54.2702 87.168 53.3832 87.8723 51.5595 87.8723ZM55.2774 88.5687C55.8038 88.2891 56.2323 87.8827 56.5537 87.36C56.9116 86.7734 57.0945 86.1357 57.0945 85.4628C57.0945 82.8181 55.2395 81.4774 51.5817 81.4774C50.2923 81.4774 49.1205 81.565 48.1002 81.7375C47.238 81.8877 46.8004 82.4025 46.8004 83.2663V95.0223C46.8004 95.8717 47.2315 96.3656 48.0806 96.4858C49.0983 96.6439 50.3341 96.7249 51.7541 96.7249C55.7686 96.7249 57.8039 95.1595 57.8039 92.0719C57.8039 91.2095 57.5583 90.4555 57.0749 89.8323C56.6321 89.2626 56.0285 88.8379 55.2774 88.5687ZM70.9172 96.2805C71.1576 96.0558 71.2791 95.7552 71.2791 95.3881C71.2791 95.0052 71.1576 94.6982 70.9172 94.4721C70.6782 94.25 70.3581 94.1376 69.9636 94.1376H63.8315V90.1353H68.5436C68.9525 90.1353 69.2817 90.019 69.5194 89.7877C69.7585 89.5564 69.88 89.2533 69.88 88.8861C69.88 88.5019 69.7572 88.1975 69.5168 87.9806C69.2791 87.765 68.9512 87.6565 68.5436 87.6565H63.8315V84.0645H69.748C70.1439 84.0645 70.4639 83.9508 70.7017 83.7287C70.942 83.5039 71.0635 83.2034 71.0635 82.8349C71.0635 82.4521 70.942 82.145 70.7017 81.9203C70.4639 81.6981 70.1426 81.5844 69.748 81.5844H62.4729C62.0327 81.5844 61.6852 81.7216 61.4396 81.9895C61.1953 82.2574 61.0712 82.5997 61.0712 83.0074V95.1934C61.0712 95.6024 61.1992 95.946 61.4514 96.2126C61.7035 96.4805 62.0549 96.6163 62.4951 96.6163H69.9636C70.3581 96.6163 70.6782 96.504 70.9172 96.2805ZM76.7672 84.0321C77.3655 83.9537 77.9652 83.9132 78.5517 83.9132C80.5348 83.9132 81.5002 84.7233 81.5002 86.388C81.5002 88.169 80.4864 89.034 78.4015 89.034C77.7196 89.034 77.1709 89.0092 76.7672 88.9595V84.0321ZM84.3872 86.3227C84.3872 84.6658 83.8647 83.4284 82.8353 82.647C81.8124 81.8709 80.3924 81.4776 78.617 81.4776C77.3538 81.4776 76.2329 81.5716 75.2845 81.7585C74.438 81.9258 74.0082 82.4615 74.0082 83.3513V95.2159C74.0082 95.6235 74.1284 95.962 74.3648 96.222C74.6039 96.4846 74.9475 96.6166 75.3877 96.6166C75.8136 96.6166 76.1532 96.4846 76.3988 96.2233C76.6431 95.9633 76.7672 95.6248 76.7672 95.2159V91.356C77.197 91.4187 77.7966 91.45 78.5517 91.45C80.2722 91.45 81.6883 91.0149 82.7608 90.1604C83.8399 89.2993 84.3872 88.0083 84.3872 86.3227ZM96.5246 93.4384C95.4952 94.0447 94.4814 94.3518 93.5121 94.3518C92.2972 94.3518 91.2796 93.8814 90.4905 92.951C89.6976 92.0181 89.2952 90.7153 89.2952 89.0794C89.2952 87.4996 89.6688 86.2165 90.4069 85.2678C91.6048 83.7286 93.5774 83.4267 96.2372 84.4459C97.132 84.7804 97.7212 84.6419 97.9838 84.0565C98.2908 83.398 98.1066 82.8322 97.4377 82.3762C96.4802 81.7085 95.1229 81.37 93.405 81.37C91.2208 81.37 89.4899 82.0782 88.2593 83.4764C87.03 84.8719 86.4068 86.7639 86.4068 89.1003C86.4068 91.4653 86.9934 93.3639 88.1495 94.7438C89.3109 96.1301 91.0496 96.8318 93.3188 96.8318C95.1085 96.8318 96.6043 96.3993 97.763 95.5434C98.1366 95.2599 98.3692 94.9306 98.4528 94.5674C98.5364 94.1976 98.4776 93.8761 98.2777 93.6148C97.895 93.0634 97.2993 92.9967 96.5246 93.4384ZM112.325 81.5846C111.825 81.5846 111.381 81.8433 111.006 82.3529L104.213 91.757V83.0075C104.213 82.5999 104.093 82.2575 103.857 81.991C103.617 81.7218 103.273 81.5846 102.833 81.5846C102.377 81.5846 102.03 81.7218 101.797 81.9923C101.569 82.2588 101.454 82.5999 101.454 83.0075V95.2157C101.454 95.6522 101.57 95.9984 101.8 96.2441C102.031 96.491 102.358 96.6165 102.769 96.6165C103.211 96.6165 103.641 96.3512 104.044 95.8272L110.882 86.4846V95.2157C110.882 95.609 111.001 95.9448 111.237 96.2101C111.476 96.4793 111.828 96.6165 112.282 96.6165C112.724 96.6165 113.063 96.4832 113.296 96.2206C113.524 95.9618 113.641 95.6234 113.641 95.2157V83.0075C113.641 82.0628 113.198 81.5846 112.325 81.5846ZM128.902 82.8138C128.902 82.4309 128.78 82.1265 128.538 81.9082C128.301 81.6939 127.973 81.5842 127.565 81.5842H117.363C116.969 81.5842 116.648 81.6939 116.409 81.9082C116.169 82.1265 116.047 82.4309 116.047 82.8138C116.047 83.1809 116.169 83.4854 116.408 83.7167C116.647 83.9479 116.967 84.0642 117.363 84.0642H121.084V95.2153C121.084 95.623 121.203 95.9627 121.441 96.2215C121.679 96.4841 122.024 96.6161 122.464 96.6161C122.904 96.6161 123.248 96.4841 123.485 96.2215C123.723 95.9627 123.843 95.6243 123.843 95.2153V84.0642H127.565C127.974 84.0642 128.303 83.9479 128.541 83.7167C128.78 83.4854 128.902 83.1809 128.902 82.8138ZM140.2 94.1371H134.068V90.1361H138.78C139.189 90.1361 139.518 90.0185 139.756 89.7885C139.995 89.5572 140.117 89.2528 140.117 88.8856C140.117 88.5027 139.994 88.197 139.753 87.9801C139.516 87.7658 139.188 87.656 138.78 87.656H134.068V84.064H139.985C140.38 84.064 140.701 83.9516 140.938 83.7282C141.179 83.5047 141.3 83.2042 141.3 82.8357C141.3 82.4529 141.179 82.1445 140.938 81.9211C140.701 81.6976 140.379 81.5852 139.985 81.5852H132.71C132.269 81.5852 131.922 81.7211 131.676 81.9903C131.432 82.2569 131.308 82.5992 131.308 83.0082V95.1942C131.308 95.6032 131.436 95.9455 131.688 96.2121C131.94 96.4799 132.292 96.6171 132.732 96.6171H140.2C140.595 96.6171 140.915 96.5034 141.154 96.28C141.394 96.0566 141.516 95.756 141.516 95.3876C141.516 95.006 141.394 94.6976 141.154 94.4729C140.915 94.2494 140.595 94.1371 140.2 94.1371ZM155.378 82.8138C155.378 82.4309 155.256 82.1265 155.015 81.9082C154.777 81.6939 154.449 81.5842 154.041 81.5842H143.839C143.445 81.5842 143.124 81.6939 142.885 81.9082C142.645 82.1265 142.523 82.4309 142.523 82.8138C142.523 83.1809 142.645 83.4854 142.884 83.7167C143.123 83.9479 143.443 84.0642 143.839 84.0642H147.56V95.2153C147.56 95.623 147.679 95.9627 147.917 96.2215C148.155 96.4841 148.5 96.6161 148.94 96.6161C149.38 96.6161 149.724 96.4841 149.962 96.2215C150.199 95.9627 150.32 95.6243 150.32 95.2153V84.0642H154.041C154.45 84.0642 154.779 83.9479 155.017 83.7167C155.256 83.4854 155.378 83.1809 155.378 82.8138ZM175.998 95.2153V83.0071C175.998 82.0637 175.555 81.5842 174.684 81.5842C174.182 81.5842 173.739 81.8429 173.363 82.3525L166.57 91.7566V83.0071C166.57 82.5995 166.45 82.2571 166.215 81.9906C165.976 81.7214 165.631 81.5842 165.192 81.5842C164.736 81.5842 164.387 81.7214 164.156 81.9919C163.927 82.2597 163.811 82.6008 163.811 83.0071V95.2153C163.811 95.6518 163.929 95.998 164.159 96.2437C164.39 96.492 164.715 96.6174 165.127 96.6174C165.569 96.6174 165.998 96.3521 166.403 95.8269L173.239 86.4855V95.2153C173.239 95.61 173.359 95.9445 173.596 96.2097C173.833 96.4802 174.185 96.6174 174.641 96.6174C175.081 96.6174 175.422 96.4841 175.653 96.2215C175.883 95.9614 175.998 95.623 175.998 95.2153ZM189.923 81.5846H179.721C179.328 81.5846 179.008 81.693 178.767 81.9086C178.527 82.1269 178.405 82.43 178.405 82.8142C178.405 83.1813 178.527 83.4845 178.766 83.7171C179.005 83.947 179.325 84.0646 179.721 84.0646H183.443V95.2157C183.443 95.6234 183.563 95.9618 183.799 96.2219C184.038 96.4845 184.382 96.6165 184.822 96.6165C185.262 96.6165 185.606 96.4845 185.844 96.2219C186.081 95.9618 186.202 95.6234 186.202 95.2157V84.0646H189.923C190.332 84.0646 190.66 83.947 190.899 83.7171C191.138 83.4845 191.26 83.1813 191.26 82.8142C191.26 82.43 191.138 82.1269 190.897 81.9086C190.659 81.693 190.331 81.5846 189.923 81.5846ZM206.088 81.5846C205.557 81.5846 205.105 81.8734 204.744 82.4444L200.513 89.2795L196.198 82.4666C195.837 81.8812 195.363 81.5846 194.788 81.5846C194.407 81.5846 194.092 81.7061 193.854 81.9439C193.615 82.183 193.495 82.5489 193.495 83.0298V95.2157C193.495 96.1448 193.93 96.6165 194.788 96.6165C195.647 96.6165 196.082 96.1448 196.082 95.2157V86.8609L199.105 91.6015C199.436 92.1294 199.866 92.3959 200.385 92.3959C200.889 92.3959 201.312 92.1215 201.644 91.5806L204.623 86.7616V95.2157C204.623 95.6234 204.747 95.9631 204.992 96.2232C205.238 96.4845 205.578 96.6165 206.003 96.6165C206.442 96.6165 206.787 96.4845 207.025 96.2219C207.261 95.9631 207.382 95.6234 207.382 95.2157V83.0075C207.382 82.5855 207.271 82.2405 207.049 81.9818C206.824 81.7179 206.501 81.5846 206.088 81.5846ZM220.968 92.891C220.235 93.8606 219.169 94.3519 217.799 94.3519C216.443 94.3519 215.383 93.8606 214.65 92.891C213.912 91.9137 213.539 90.6383 213.539 89.1004C213.539 87.5638 213.912 86.2885 214.65 85.3098C215.383 84.3415 216.443 83.8489 217.799 83.8489C219.169 83.8489 220.235 84.3415 220.968 85.3098C221.706 86.2885 222.08 87.5638 222.08 89.1004C222.08 90.6383 221.706 91.9137 220.968 92.891ZM223.095 83.5536C221.85 82.1045 220.068 81.3702 217.799 81.3702C215.528 81.3702 213.75 82.1045 212.512 83.5536C211.277 84.9975 210.65 86.8647 210.65 89.1004C210.65 91.3518 211.277 93.2216 212.512 94.659C213.752 96.1015 215.53 96.8319 217.799 96.8319C220.068 96.8319 221.85 96.1015 223.095 94.659C224.338 93.2216 224.968 91.3518 224.968 89.1004C224.968 86.8647 224.338 84.9975 223.095 83.5536Z" fill="white"/>
</svg>
