<svg width="272" height="80" viewBox="0 0 272 80" fill="none" xmlns="http://www.w3.org/2000/svg">
<path fill-rule="evenodd" clip-rule="evenodd" d="M94.4761 27.4177C94.4761 29.5909 95.0719 31.3705 96.2627 32.7565C97.4536 34.1426 99.1427 34.8357 101.33 34.8357C103.517 34.8357 105.209 34.1426 106.408 32.7565C107.605 31.3705 108.204 29.5909 108.204 27.4177C108.204 25.2587 107.605 23.4824 106.408 22.0893C105.209 20.6963 103.517 20 101.33 20C99.1427 20 97.4536 20.6963 96.2627 22.0893C95.0719 23.4824 94.4761 25.2587 94.4761 27.4177ZM97.1092 27.4177C97.1092 25.8995 97.4742 24.6561 98.2056 23.688C98.937 22.72 99.9786 22.2355 101.33 22.2355C102.695 22.2355 103.743 22.72 104.475 23.688C105.206 24.6561 105.572 25.8995 105.572 27.4177C105.572 28.9362 105.206 30.1796 104.475 31.1476C103.743 32.1157 102.695 32.5998 101.33 32.5998C99.9786 32.5998 98.937 32.1157 98.2056 31.1476C97.4742 30.1796 97.1092 28.9362 97.1092 27.4177ZM115.892 22.9253C116.241 22.7859 116.7 22.6189 117.272 22.4237C117.842 22.2286 118.232 22.0824 118.441 21.985C119.166 21.6505 119.424 21.184 119.214 20.585C119.006 20 118.455 19.8676 117.564 20.1878L115.14 21.0866C113.273 21.811 111.992 22.7269 111.295 23.8343C110.599 24.9417 110.251 26.5751 110.251 28.734C110.251 30.6982 110.669 32.2061 111.504 33.2581C112.34 34.3097 113.58 34.8357 115.224 34.8357C116.714 34.8357 117.905 34.3619 118.797 33.4146C119.688 32.4674 120.134 31.2694 120.134 29.8206C120.134 28.358 119.744 27.1845 118.964 26.3C118.184 25.4151 117.104 24.973 115.725 24.973C115.015 24.973 114.325 25.1368 113.656 25.464C112.987 25.7915 112.465 26.2894 112.089 26.9581C112.131 25.7741 112.598 24.8267 113.489 24.1163C113.949 23.7541 114.75 23.3572 115.892 22.9253ZM117.71 29.9042C117.71 30.8238 117.491 31.5412 117.052 32.0565C116.613 32.572 115.997 32.8296 115.203 32.8296C114.436 32.8296 113.838 32.5753 113.406 32.0668C112.974 31.5587 112.758 30.8514 112.758 29.9461C112.758 29.0266 112.98 28.3022 113.426 27.7729C113.873 27.2437 114.472 26.9789 115.224 26.9789C116.017 26.9789 116.631 27.2367 117.062 27.7521C117.494 28.2675 117.71 28.985 117.71 29.9042ZM122.494 37.5939C122.494 37.9419 122.594 38.2312 122.796 38.461C122.999 38.6908 123.288 38.8056 123.663 38.8056C124.04 38.8056 124.332 38.6908 124.541 38.461C124.75 38.2312 124.854 37.9419 124.854 37.5939V34.4385C125.509 34.7033 126.283 34.8357 127.174 34.8357C128.734 34.8357 129.908 34.3203 130.695 33.2894C131.482 32.2587 131.876 30.8933 131.876 29.194C131.876 27.6755 131.534 26.4601 130.852 25.5475C130.169 24.6353 129.187 24.179 127.905 24.179C126.498 24.179 125.481 24.7083 124.854 25.7671V25.5997C124.854 25.2517 124.75 24.9625 124.541 24.7327C124.332 24.5029 124.04 24.388 123.663 24.388C123.288 24.388 122.999 24.5029 122.796 24.7327C122.594 24.9625 122.494 25.2517 122.494 25.5997V37.5939ZM127.425 26.1848C128.775 26.1848 129.451 27.174 129.451 29.152C129.451 31.604 128.609 32.8296 126.923 32.8296C126.101 32.8296 125.412 32.6693 124.854 32.3492V30.7193C124.854 27.6963 125.711 26.1848 127.425 26.1848ZM139.982 33.4146C139.982 33.7629 140.075 34.0521 140.264 34.2819C140.452 34.5118 140.734 34.6267 141.109 34.6267C141.486 34.6267 141.768 34.5151 141.956 34.2922C142.144 34.0693 142.238 33.7768 142.238 33.4146V28.0654C142.238 25.4746 140.865 24.179 138.121 24.179C136.617 24.179 135.482 24.4369 134.715 24.9522C134.2 25.2864 134.026 25.6974 134.193 26.1848C134.277 26.4219 134.433 26.582 134.664 26.6655C134.894 26.7491 135.134 26.7491 135.384 26.6655C135.496 26.6378 135.663 26.5889 135.886 26.5193L136.387 26.3624C136.499 26.3278 136.641 26.2894 136.816 26.2475C136.99 26.2059 137.16 26.1779 137.327 26.164C137.495 26.1501 137.668 26.1432 137.85 26.1432C138.686 26.1432 139.25 26.3277 139.543 26.6968C139.835 27.0661 139.982 27.5851 139.982 28.2536V28.4834C139.396 28.386 138.665 28.3372 137.787 28.3372C136.506 28.3372 135.436 28.6123 134.58 29.1626C133.723 29.7127 133.294 30.58 133.294 31.764C133.294 32.6974 133.591 33.4427 134.183 33.9997C134.775 34.557 135.593 34.8357 136.638 34.8357C138.184 34.8357 139.298 34.2366 139.982 33.0386V33.4146ZM137.265 32.997C136.75 32.997 136.345 32.8678 136.053 32.6103C135.761 32.3524 135.614 32.0078 135.614 31.5758C135.614 30.4057 136.449 29.8206 138.121 29.8206C138.916 29.8206 139.536 29.8556 139.982 29.9253V30.2806C139.982 30.9908 139.737 31.6211 139.25 32.1715C138.763 32.7215 138.1 32.997 137.265 32.997ZM148.547 26.1848C149.577 26.1848 150.093 26.5681 150.093 27.3341C150.093 28.184 149.459 28.6089 148.191 28.6089H147.439C146.771 28.6089 146.436 28.8803 146.436 29.4238C146.436 29.953 146.771 30.2178 147.439 30.2178H148.275C149.654 30.2178 150.344 30.6498 150.344 31.5131C150.344 32.3908 149.716 32.8296 148.463 32.8296C147.878 32.8296 147.105 32.6833 146.144 32.3908C145.489 32.182 145.064 32.3211 144.869 32.8088C144.646 33.3661 144.814 33.8187 145.371 34.1671C146.123 34.6128 147.23 34.8357 148.693 34.8357C150.002 34.8357 151.002 34.5464 151.691 33.9683C152.381 33.3906 152.726 32.6066 152.726 31.6178C152.726 31.0046 152.552 30.4929 152.203 30.0818C151.855 29.6711 151.388 29.403 150.803 29.2775C151.305 29.1243 151.709 28.8282 152.015 28.3893C152.322 27.9506 152.475 27.4665 152.475 26.9373C152.475 26.1155 152.165 25.4501 151.545 24.9417C150.925 24.4332 150.024 24.179 148.84 24.179C147.557 24.179 146.499 24.4369 145.663 24.9522C145.064 25.3144 144.89 25.7741 145.14 26.3311C145.377 26.791 145.838 26.8953 146.52 26.6447C147.328 26.3383 148.003 26.1848 148.547 26.1848ZM154.333 29.5074C154.333 31.0812 154.772 32.363 155.649 33.3522C156.527 34.3411 157.753 34.8357 159.326 34.8357C160.901 34.8357 162.13 34.3378 163.015 33.3416C163.899 32.3455 164.342 31.0674 164.342 29.5074C164.342 27.9472 163.899 26.6691 163.015 25.673C162.13 24.6769 160.901 24.179 159.326 24.179C157.753 24.179 156.527 24.6735 155.649 25.6625C154.772 26.6517 154.333 27.933 154.333 29.5074ZM156.756 29.5074C156.756 28.5323 156.98 27.7346 157.425 27.1148C157.871 26.4949 158.505 26.1848 159.326 26.1848C160.163 26.1848 160.804 26.4915 161.249 27.1043C161.695 27.7171 161.918 28.5181 161.918 29.5074C161.918 30.4962 161.695 31.2971 161.249 31.9103C160.804 32.5232 160.163 32.8296 159.326 32.8296C158.505 32.8296 157.871 32.5232 157.425 31.9103C156.98 31.2971 156.756 30.4962 156.756 29.5074ZM166.701 33.2683C166.701 34.0069 167.07 34.4315 167.809 34.5431C168.505 34.6686 169.438 34.731 170.609 34.731C173.674 34.731 175.206 33.6794 175.206 31.5758C175.206 30.9769 175.028 30.479 174.673 30.0818C174.318 29.685 173.841 29.4307 173.242 29.3191C173.701 29.1382 174.056 28.8456 174.307 28.4415C174.558 28.0377 174.683 27.5851 174.683 27.0835C174.683 26.2475 174.345 25.5756 173.67 25.0671C172.994 24.5587 171.953 24.3045 170.546 24.3045C169.362 24.3045 168.436 24.3672 167.767 24.4923C167.057 24.6317 166.701 25.0843 166.701 25.8507V33.2683ZM170.88 30.2386C172.176 30.2386 172.824 30.6498 172.824 31.4715C172.824 32.3908 172.127 32.8507 170.734 32.8507C170.065 32.8507 169.487 32.8226 169 32.7672V30.2386H170.88ZM170.546 26.1848C171.786 26.1848 172.406 26.6097 172.406 27.4596C172.406 28.3233 171.786 28.7552 170.546 28.7552H169V26.2686C169.432 26.2129 169.947 26.1848 170.546 26.1848ZM183.416 33.4146C183.416 33.7629 183.51 34.0521 183.698 34.2819C183.886 34.5118 184.168 34.6267 184.544 34.6267C184.92 34.6267 185.202 34.5151 185.39 34.2922C185.579 34.0693 185.672 33.7768 185.672 33.4146V28.0654C185.672 25.4746 184.3 24.179 181.556 24.179C180.052 24.179 178.916 24.4369 178.15 24.9522C177.635 25.2864 177.46 25.6974 177.628 26.1848C177.711 26.4219 177.868 26.582 178.098 26.6655C178.327 26.7491 178.568 26.7491 178.819 26.6655C178.93 26.6378 179.098 26.5889 179.32 26.5193L179.822 26.3624C179.934 26.3278 180.076 26.2894 180.251 26.2475C180.424 26.2059 180.595 26.1779 180.762 26.164C180.929 26.1501 181.103 26.1432 181.284 26.1432C182.12 26.1432 182.685 26.3277 182.977 26.6968C183.269 27.0661 183.416 27.5851 183.416 28.2536V28.4834C182.831 28.386 182.1 28.3372 181.222 28.3372C179.94 28.3372 178.871 28.6123 178.014 29.1626C177.158 29.7127 176.729 30.58 176.729 31.764C176.729 32.6974 177.025 33.4427 177.617 33.9997C178.209 34.557 179.028 34.8357 180.072 34.8357C181.619 34.8357 182.733 34.2366 183.416 33.0386V33.4146ZM180.699 32.997C180.184 32.997 179.78 32.8678 179.487 32.6103C179.195 32.3524 179.048 32.0078 179.048 31.5758C179.048 30.4057 179.884 29.8206 181.556 29.8206C182.35 29.8206 182.97 29.8556 183.416 29.9253V30.2806C183.416 30.9908 183.172 31.6211 182.685 32.1715C182.197 32.7215 181.535 32.997 180.699 32.997ZM188.011 24.388C187.273 24.388 186.904 24.7432 186.904 25.4535C186.904 26.1363 187.273 26.4773 188.011 26.4773H190.331V33.3938C190.331 33.756 190.442 34.0521 190.665 34.2819C190.888 34.5118 191.187 34.6267 191.563 34.6267C191.953 34.6267 192.257 34.5118 192.472 34.2819C192.689 34.0521 192.796 33.756 192.796 33.3938V26.4773H195.115C195.868 26.4773 196.244 26.1363 196.244 25.4535C196.244 24.7432 195.868 24.388 195.115 24.388H188.011ZM204.538 30.3641C204.942 30.3641 205.248 30.2806 205.457 30.1132C205.666 29.9461 205.819 29.6813 205.917 29.3191C205.986 29.0685 206.021 28.741 206.021 28.3372C206.021 27.0835 205.642 26.0768 204.882 25.3177C204.123 24.5587 203.075 24.179 201.738 24.179C200.248 24.179 199.063 24.6667 198.186 25.6417C197.308 26.6167 196.869 27.9192 196.869 29.5493C196.869 31.2347 197.284 32.537 198.113 33.4565C198.942 34.3761 200.136 34.8357 201.696 34.8357C203.089 34.8357 204.19 34.5639 204.997 34.0208C205.262 33.8534 205.433 33.6411 205.509 33.3832C205.586 33.1257 205.562 32.8923 205.436 32.6833C205.185 32.2376 204.753 32.1402 204.141 32.3908C203.277 32.753 202.539 32.9342 201.926 32.9342C201.118 32.9342 200.47 32.7044 199.982 32.2445C199.495 31.7848 199.237 31.1582 199.209 30.3641H204.538ZM201.738 26.0805C202.434 26.0805 202.96 26.2756 203.316 26.6655C203.671 27.0555 203.848 27.5639 203.848 28.1909C203.848 28.3999 203.841 28.5739 203.827 28.7132H199.209C199.279 27.8634 199.534 27.2123 199.972 26.7596C200.411 26.3069 201 26.0805 201.738 26.0805ZM213.814 33.4146C213.814 33.7629 213.915 34.0521 214.116 34.2819C214.318 34.5118 214.608 34.6267 214.983 34.6267C215.36 34.6267 215.652 34.5118 215.861 34.2819C216.07 34.0521 216.174 33.7629 216.174 33.4146V25.5997C216.174 25.2656 216.07 24.98 215.861 24.7432C215.652 24.5061 215.36 24.388 214.983 24.388H210.387C210.052 24.388 209.767 24.489 209.53 24.6911C209.293 24.8928 209.168 25.1959 209.154 25.5997C209.028 28.567 208.82 30.5659 208.527 31.597C208.346 32.2376 208.019 32.5582 207.545 32.5582C206.876 32.5582 206.535 32.8784 206.521 33.5192C206.507 33.9092 206.633 34.2017 206.897 34.3969C207.162 34.592 207.503 34.6894 207.921 34.6894C209.217 34.6894 210.094 33.9373 210.554 32.4327C210.972 31.1093 211.223 29.1243 211.307 26.4773H213.814V33.4146ZM222.546 32.788C222.114 32.788 221.731 32.7672 221.396 32.7252V29.6536C221.954 29.5839 222.393 29.5493 222.713 29.5493C223.396 29.5493 223.905 29.6744 224.238 29.9253C224.573 30.1759 224.74 30.58 224.74 31.1371C224.74 32.2376 224.009 32.788 222.546 32.788ZM219.035 33.1848C219.035 33.923 219.363 34.3761 220.018 34.5431C220.519 34.6686 221.23 34.731 222.149 34.731C225.464 34.731 227.122 33.54 227.122 31.1582C227.122 30.0435 226.778 29.194 226.087 28.6089C225.398 28.0238 224.378 27.7313 223.027 27.7313C222.469 27.7313 221.926 27.7729 221.396 27.8564V25.5997C221.396 25.2237 221.285 24.9278 221.063 24.7119C220.84 24.4959 220.554 24.388 220.206 24.388C219.872 24.388 219.593 24.4923 219.37 24.7013C219.147 24.9104 219.035 25.2029 219.035 25.5789V33.1848ZM236.022 33.4146C236.022 33.7629 236.123 34.0521 236.324 34.2819C236.527 34.5118 236.816 34.6267 237.192 34.6267C237.569 34.6267 237.86 34.5118 238.07 34.2819C238.279 34.0521 238.383 33.7629 238.383 33.4146V25.5997C238.383 25.2517 238.279 24.9625 238.07 24.7327C237.86 24.5029 237.569 24.388 237.192 24.388C236.816 24.388 236.527 24.5029 236.324 24.7327C236.123 24.9625 236.022 25.2517 236.022 25.5997V28.2952H231.759V25.5997C231.759 25.2517 231.655 24.9625 231.446 24.7327C231.236 24.5029 230.945 24.388 230.568 24.388C230.192 24.388 229.903 24.5029 229.701 24.7327C229.499 24.9625 229.398 25.2517 229.398 25.5997V33.4146C229.398 33.7629 229.499 34.0521 229.701 34.2819C229.903 34.5118 230.192 34.6267 230.568 34.6267C230.945 34.6267 231.236 34.5118 231.446 34.2819C231.655 34.0521 231.759 33.7629 231.759 33.4146V30.3849H236.022V33.4146ZM244.734 32.788C244.33 32.788 243.96 32.7672 243.626 32.7252V29.6536C244.184 29.5839 244.608 29.5493 244.9 29.5493C245.556 29.5493 246.022 29.6779 246.301 29.9355C246.58 30.1934 246.718 30.5939 246.718 31.1371C246.718 32.2376 246.057 32.788 244.734 32.788ZM241.265 33.1848C241.265 33.923 241.592 34.3761 242.248 34.5431C242.748 34.6686 243.445 34.731 244.337 34.731C244.852 34.731 245.332 34.6963 245.778 34.6267C246.224 34.557 246.656 34.4385 247.074 34.2714C247.492 34.1043 247.847 33.8884 248.139 33.6235C248.432 33.3591 248.665 33.0178 248.839 32.5998C249.014 32.182 249.101 31.7013 249.101 31.1582C249.101 28.8734 247.806 27.7313 245.214 27.7313C244.685 27.7313 244.155 27.7729 243.626 27.8564V25.5997C243.626 25.2237 243.515 24.9278 243.292 24.7119C243.069 24.4959 242.783 24.388 242.435 24.388C242.101 24.388 241.822 24.4923 241.599 24.7013C241.377 24.9104 241.265 25.2029 241.265 25.5789V33.1848ZM250.041 33.4146C250.041 33.7629 250.142 34.0521 250.344 34.2819C250.546 34.5118 250.835 34.6267 251.211 34.6267C251.587 34.6267 251.88 34.5118 252.088 34.2819C252.298 34.0521 252.402 33.7629 252.402 33.4146V25.5997C252.402 25.2517 252.298 24.9625 252.088 24.7327C251.88 24.5029 251.587 24.388 251.211 24.388C250.835 24.388 250.546 24.5029 250.344 24.7327C250.142 24.9625 250.041 25.2517 250.041 25.5997V33.4146ZM261.992 33.4146C261.992 33.7768 262.093 34.0693 262.295 34.2922C262.497 34.5151 262.785 34.6267 263.162 34.6267C263.552 34.6267 263.848 34.5151 264.05 34.2922C264.251 34.0693 264.353 33.7768 264.353 33.4146V25.5997C264.353 25.2375 264.258 24.945 264.071 24.7221C263.883 24.4993 263.601 24.388 263.224 24.388C262.779 24.388 262.395 24.6178 262.075 25.0773L257.645 30.9281V25.5997C257.645 25.2517 257.544 24.9625 257.342 24.7327C257.14 24.5029 256.852 24.388 256.475 24.388C256.099 24.388 255.806 24.5029 255.598 24.7327C255.389 24.9625 255.284 25.2517 255.284 25.5997V33.4146C255.284 33.7768 255.378 34.0693 255.566 34.2922C255.755 34.5151 256.036 34.6267 256.413 34.6267C256.83 34.6267 257.185 34.4315 257.478 34.0416L261.992 28.1282V33.4146ZM259.839 23.1759C261.218 23.1759 262.215 22.6606 262.827 21.6297C263.134 21.0866 263.092 20.6824 262.702 20.418C262.242 20.1254 261.81 20.2298 261.406 20.7313C261.156 21.0238 260.916 21.243 260.686 21.3893C260.455 21.5355 260.174 21.6089 259.839 21.6089C259.282 21.6089 258.766 21.3234 258.293 20.7521C257.875 20.2367 257.444 20.1254 256.997 20.418C256.817 20.5431 256.712 20.7244 256.684 20.9611C256.656 21.1978 256.705 21.4277 256.83 21.6505C257.081 22.0824 257.464 22.4446 257.979 22.7371C258.495 23.0296 259.115 23.1759 259.839 23.1759ZM106.198 42.5006C106.198 42.1246 106.087 41.8149 105.864 41.5709C105.641 41.3272 105.335 41.2053 104.945 41.2053C104.541 41.2053 104.231 41.3272 104.015 41.5709C103.799 41.8149 103.691 42.1246 103.691 42.5006V53.387H97.6105V42.5006C97.6105 42.1246 97.4986 41.8149 97.2761 41.5709C97.0528 41.3272 96.7397 41.2053 96.3359 41.2053C95.9458 41.2053 95.6426 41.3272 95.4269 41.5709C95.2106 41.8149 95.1031 42.1246 95.1031 42.5006V54.3486C95.1031 54.7246 95.2106 55.031 95.4269 55.2678C95.6426 55.5045 95.9458 55.623 96.3359 55.623H105.697V57.399C105.697 57.7752 105.798 58.0818 106 58.3186C106.202 58.5554 106.497 58.6738 106.888 58.6738C107.278 58.6738 107.57 58.5554 107.765 58.3186C107.96 58.0818 108.058 57.7752 108.058 57.399V54.62C108.058 54.2578 107.96 53.9619 107.765 53.7321C107.57 53.502 107.292 53.387 106.929 53.387H106.198V42.5006ZM117.501 51.3605C117.905 51.3605 118.212 51.277 118.42 51.1096C118.629 50.9425 118.783 50.6777 118.88 50.3155C118.95 50.0649 118.984 49.7374 118.984 49.3336C118.984 48.0799 118.605 47.0731 117.846 46.3141C117.086 45.555 116.039 45.1754 114.701 45.1754C113.211 45.1754 112.027 45.663 111.149 46.638C110.271 47.613 109.832 48.9155 109.832 50.5457C109.832 52.2312 110.247 53.5334 111.076 54.4529C111.905 55.3724 113.099 55.832 114.659 55.832C116.052 55.832 117.153 55.5603 117.961 55.0172C118.225 54.8498 118.396 54.6375 118.473 54.3797C118.549 54.1221 118.525 53.8886 118.399 53.6796C118.149 53.2339 117.717 53.1365 117.104 53.387C116.241 53.7493 115.502 53.9306 114.889 53.9306C114.081 53.9306 113.433 53.7008 112.946 53.2409C112.459 52.7813 112.2 52.1546 112.173 51.3605H117.501ZM114.701 47.0768C115.397 47.0768 115.924 47.272 116.279 47.6619C116.634 48.0518 116.811 48.5603 116.811 49.1873C116.811 49.3963 116.804 49.5704 116.791 49.7096H112.173C112.242 48.8597 112.497 48.2087 112.936 47.756C113.374 47.3033 113.963 47.0768 114.701 47.0768ZM127.926 54.411C127.926 54.7593 128.027 55.0485 128.229 55.2783C128.431 55.5082 128.721 55.623 129.096 55.623C129.473 55.623 129.765 55.5082 129.974 55.2783C130.183 55.0485 130.287 54.7593 130.287 54.411V46.5961C130.287 46.2481 130.183 45.9589 129.974 45.7291C129.765 45.4992 129.473 45.3844 129.096 45.3844C128.721 45.3844 128.431 45.4992 128.229 45.7291C128.027 45.9589 127.926 46.2481 127.926 46.5961V49.2917H123.663V46.5961C123.663 46.2481 123.559 45.9589 123.35 45.7291C123.141 45.4992 122.849 45.3844 122.472 45.3844C122.097 45.3844 121.808 45.4992 121.605 45.7291C121.403 45.9589 121.302 46.2481 121.302 46.5961V54.411C121.302 54.7593 121.403 55.0485 121.605 55.2783C121.808 55.5082 122.097 55.623 122.472 55.623C122.849 55.623 123.141 55.5082 123.35 55.2783C123.559 55.0485 123.663 54.7593 123.663 54.411V51.3813H127.926V54.411ZM132.939 45.3844C132.201 45.3844 131.832 45.7396 131.832 46.4498C131.832 47.1326 132.201 47.4737 132.939 47.4737H135.259V54.3902C135.259 54.7524 135.37 55.0485 135.593 55.2783C135.816 55.5082 136.115 55.623 136.491 55.623C136.881 55.623 137.185 55.5082 137.4 55.2783C137.617 55.0485 137.725 54.7524 137.725 54.3902V47.4737H140.043C140.796 47.4737 141.172 47.1326 141.172 46.4498C141.172 45.7396 140.796 45.3844 140.043 45.3844H132.939ZM142.549 58.5903C142.549 58.9384 142.651 59.2275 142.852 59.4573C143.054 59.6871 143.343 59.8021 143.72 59.8021C144.096 59.8021 144.388 59.6871 144.597 59.4573C144.806 59.2275 144.91 58.9384 144.91 58.5903V55.4348C145.565 55.6996 146.338 55.832 147.23 55.832C148.79 55.832 149.964 55.3166 150.751 54.2858C151.538 53.2551 151.931 51.8898 151.931 50.1903C151.931 48.6719 151.59 47.4565 150.907 46.5439C150.225 45.6316 149.243 45.1754 147.961 45.1754C146.555 45.1754 145.537 45.7046 144.91 46.7635V46.5961C144.91 46.2481 144.806 45.9589 144.597 45.7291C144.388 45.4992 144.096 45.3844 143.72 45.3844C143.343 45.3844 143.054 45.4992 142.852 45.7291C142.651 45.9589 142.549 46.2481 142.549 46.5961V58.5903ZM147.481 47.1812C148.832 47.1812 149.508 48.1703 149.508 50.1484C149.508 52.6003 148.665 53.8259 146.979 53.8259C146.158 53.8259 145.468 53.6657 144.91 53.3454V51.7157C144.91 48.6927 145.768 47.1812 147.481 47.1812Z" fill="white"/>
<path fill-rule="evenodd" clip-rule="evenodd" d="M162.085 42.0203C161.751 41.4768 161.319 41.2053 160.789 41.2053C160.441 41.2053 160.159 41.3134 159.944 41.5293C159.727 41.7452 159.619 42.076 159.619 42.5217V54.3486C159.619 55.1982 160.01 55.623 160.789 55.623C161.57 55.623 161.96 55.1982 161.96 54.3486V45.9486L165.052 50.7963C165.359 51.2839 165.749 51.5276 166.223 51.5276C166.682 51.5276 167.065 51.2769 167.372 50.7755L170.422 45.844V54.3486C170.422 54.7246 170.534 55.031 170.757 55.2678C170.98 55.5045 171.286 55.623 171.676 55.623C172.08 55.623 172.39 55.5045 172.607 55.2678C172.822 55.031 172.93 54.7246 172.93 54.3486V42.5006C172.93 42.1108 172.829 41.7973 172.627 41.5607C172.425 41.3236 172.136 41.2053 171.76 41.2053C171.272 41.2053 170.861 41.4699 170.527 41.9995L166.348 48.7486L162.085 42.0203ZM181.871 54.411C181.871 54.7593 181.966 55.0486 182.153 55.2784C182.341 55.5082 182.623 55.623 183 55.623C183.376 55.623 183.658 55.5115 183.846 55.2886C184.034 55.0657 184.128 54.7732 184.128 54.411V49.0619C184.128 46.471 182.756 45.1754 180.012 45.1754C178.508 45.1754 177.372 45.4333 176.606 45.9486C176.091 46.2828 175.916 46.6938 176.084 47.1812C176.167 47.4182 176.324 47.5784 176.554 47.6619C176.783 47.7454 177.023 47.7454 177.275 47.6619C177.386 47.6342 177.553 47.5854 177.776 47.5156L178.277 47.3588C178.389 47.3242 178.532 47.2859 178.706 47.244C178.88 47.2024 179.051 47.1742 179.218 47.1604C179.385 47.1465 179.559 47.1396 179.74 47.1396C180.576 47.1396 181.14 47.3242 181.432 47.6932C181.725 48.0624 181.871 48.5815 181.871 49.25V49.4798C181.286 49.3825 180.555 49.3336 179.678 49.3336C178.396 49.3336 177.327 49.6086 176.47 50.159C175.613 50.7091 175.185 51.5764 175.185 52.7605C175.185 53.6938 175.481 54.439 176.073 54.996C176.665 55.5534 177.484 55.8321 178.528 55.8321C180.075 55.8321 181.189 55.2331 181.871 54.0349V54.411ZM179.155 53.9933C178.64 53.9933 178.236 53.8643 177.943 53.6067C177.65 53.3489 177.504 53.0041 177.504 52.5723C177.504 51.402 178.34 50.8171 180.012 50.8171C180.805 50.8171 181.426 50.8521 181.871 50.9217V51.2769C181.871 51.9872 181.628 52.6174 181.14 53.1678C180.652 53.7179 179.991 53.9933 179.155 53.9933ZM186.467 45.3844C185.729 45.3844 185.359 45.7396 185.359 46.4498C185.359 47.1326 185.729 47.4737 186.467 47.4737H188.786V54.3902C188.786 54.7524 188.898 55.0486 189.12 55.2784C189.343 55.5082 189.643 55.623 190.019 55.623C190.409 55.623 190.712 55.5082 190.928 55.2784C191.144 55.0486 191.252 54.7524 191.252 54.3902V47.4737H193.571C194.324 47.4737 194.7 47.1326 194.7 46.4498C194.7 45.7396 194.324 45.3844 193.571 45.3844H186.467ZM202.994 51.3604C203.397 51.3604 203.704 51.2769 203.913 51.1095C204.121 50.9425 204.275 50.6778 204.373 50.3156C204.442 50.065 204.477 49.7374 204.477 49.3336C204.477 48.0799 204.098 47.0732 203.338 46.3142C202.579 45.555 201.531 45.1754 200.194 45.1754C198.703 45.1754 197.519 45.663 196.641 46.638C195.764 47.613 195.325 48.9156 195.325 50.5457C195.325 52.2312 195.739 53.5334 196.568 54.4529C197.397 55.3724 198.591 55.8321 200.152 55.8321C201.544 55.8321 202.645 55.5604 203.453 55.0172C203.717 54.8498 203.888 54.6375 203.965 54.3796C204.041 54.122 204.018 53.8886 203.892 53.6796C203.641 53.2339 203.209 53.1365 202.597 53.3871C201.733 53.7493 200.994 53.9306 200.381 53.9306C199.573 53.9306 198.926 53.7008 198.438 53.2409C197.951 52.7813 197.693 52.1546 197.665 51.3604H202.994ZM200.194 47.0768C200.89 47.0768 201.416 47.272 201.771 47.6619C202.127 48.0519 202.304 48.5604 202.304 49.1873C202.304 49.3963 202.297 49.5704 202.283 49.7096H197.665C197.735 48.8597 197.989 48.2087 198.428 47.7559C198.866 47.3034 199.455 47.0768 200.194 47.0768ZM206.795 54.411C206.795 55.219 207.143 55.623 207.839 55.623C208.55 55.623 208.905 55.219 208.905 54.411V49.3544L210.431 51.4649C210.863 52.0361 211.315 52.3217 211.789 52.3217C212.248 52.3217 212.701 52.0222 213.147 51.4233L214.776 49.1873V54.411C214.776 54.7593 214.871 55.0486 215.059 55.2784C215.247 55.5082 215.529 55.623 215.905 55.623C216.281 55.623 216.567 55.5115 216.762 55.2886C216.957 55.0657 217.055 54.7732 217.055 54.411V46.6172C217.055 45.7951 216.713 45.3844 216.031 45.3844C215.57 45.3844 215.181 45.6142 214.86 46.0738L211.852 50.1277L209.052 46.1365C208.703 45.635 208.3 45.3844 207.839 45.3844C207.143 45.3844 206.795 45.7951 206.795 46.6172V54.411ZM225.682 54.411C225.682 54.7593 225.777 55.0486 225.964 55.2784C226.152 55.5082 226.434 55.623 226.811 55.623C227.187 55.623 227.469 55.5115 227.657 55.2886C227.845 55.0657 227.939 54.7732 227.939 54.411V49.0619C227.939 46.471 226.567 45.1754 223.823 45.1754C222.319 45.1754 221.183 45.4333 220.417 45.9486C219.902 46.2828 219.727 46.6938 219.895 47.1812C219.978 47.4182 220.135 47.5784 220.365 47.6619C220.594 47.7454 220.834 47.7454 221.086 47.6619C221.197 47.6342 221.364 47.5854 221.587 47.5156L222.088 47.3588C222.2 47.3242 222.343 47.2859 222.517 47.244C222.691 47.2024 222.862 47.1742 223.029 47.1604C223.196 47.1465 223.37 47.1396 223.551 47.1396C224.387 47.1396 224.951 47.3242 225.244 47.6932C225.536 48.0624 225.682 48.5815 225.682 49.25V49.4798C225.097 49.3825 224.366 49.3336 223.489 49.3336C222.207 49.3336 221.138 49.6086 220.281 50.159C219.424 50.7091 218.996 51.5764 218.996 52.7605C218.996 53.6938 219.292 54.439 219.884 54.996C220.476 55.5534 221.295 55.8321 222.339 55.8321C223.885 55.8321 225 55.2331 225.682 54.0349V54.411ZM222.966 53.9933C222.451 53.9933 222.047 53.8643 221.754 53.6067C221.461 53.3489 221.315 53.0041 221.315 52.5723C221.315 51.402 222.151 50.8171 223.823 50.8171C224.616 50.8171 225.237 50.8521 225.682 50.9217V51.2769C225.682 51.9872 225.439 52.6174 224.951 53.1678C224.463 53.7179 223.802 53.9933 222.966 53.9933ZM230.278 45.3844C229.54 45.3844 229.17 45.7396 229.17 46.4498C229.17 47.1326 229.54 47.4737 230.278 47.4737H232.597V54.3902C232.597 54.7524 232.709 55.0486 232.931 55.2784C233.154 55.5082 233.454 55.623 233.83 55.623C234.22 55.623 234.524 55.5082 234.739 55.2784C234.955 55.0486 235.063 54.7524 235.063 54.3902V47.4737H237.382C238.135 47.4737 238.511 47.1326 238.511 46.4498C238.511 45.7396 238.135 45.3844 237.382 45.3844H230.278ZM246.763 54.411C246.763 54.7732 246.864 55.0657 247.066 55.2886C247.268 55.5115 247.557 55.623 247.933 55.623C248.323 55.623 248.619 55.5115 248.821 55.2886C249.023 55.0657 249.124 54.7732 249.124 54.411V46.5961C249.124 46.2339 249.029 45.9414 248.842 45.7185C248.654 45.4956 248.372 45.3844 247.996 45.3844C247.55 45.3844 247.167 45.6142 246.847 46.0738L242.416 51.9245V46.5961C242.416 46.2481 242.316 45.9588 242.114 45.7291C241.912 45.4993 241.623 45.3844 241.247 45.3844C240.87 45.3844 240.578 45.4993 240.369 45.7291C240.16 45.9588 240.055 46.2481 240.055 46.5961V54.411C240.055 54.7732 240.149 55.0657 240.338 55.2886C240.526 55.5115 240.808 55.623 241.184 55.623C241.602 55.623 241.957 55.428 242.249 55.038L246.763 49.1246V54.411ZM252.005 54.411C252.005 54.7593 252.103 55.0486 252.298 55.2784C252.493 55.5082 252.779 55.623 253.155 55.623C253.531 55.623 253.82 55.5082 254.022 55.2784C254.224 55.0486 254.325 54.7593 254.325 54.411V51.1307L258.191 55.0588C258.86 55.7554 259.465 55.8113 260.008 55.2262C260.218 55.0033 260.304 54.7348 260.27 54.4215C260.235 54.1083 260.085 53.8259 259.82 53.5753L256.498 50.4618L259.465 47.3067C259.73 47.028 259.876 46.7424 259.904 46.4498C259.932 46.1573 259.842 45.9067 259.633 45.6977C259.089 45.1823 258.504 45.2797 257.877 45.9902L254.325 50.023V46.5961C254.325 46.2481 254.224 45.9588 254.022 45.7291C253.82 45.4993 253.531 45.3844 253.155 45.3844C252.792 45.3844 252.511 45.4993 252.309 45.7291C252.107 45.9588 252.005 46.2481 252.005 46.5961V54.411ZM268.762 54.411C268.762 54.7732 268.863 55.0657 269.065 55.2886C269.266 55.5115 269.556 55.623 269.932 55.623C270.322 55.623 270.618 55.5115 270.82 55.2886C271.022 55.0657 271.123 54.7732 271.123 54.411V46.5961C271.123 46.2339 271.029 45.9414 270.841 45.7185C270.653 45.4956 270.371 45.3844 269.995 45.3844C269.549 45.3844 269.166 45.6142 268.845 46.0738L264.415 51.9245V46.5961C264.415 46.2481 264.315 45.9588 264.113 45.7291C263.911 45.4993 263.621 45.3844 263.245 45.3844C262.869 45.3844 262.577 45.4993 262.368 45.7291C262.159 45.9588 262.054 46.2481 262.054 46.5961V54.411C262.054 54.7732 262.149 55.0657 262.337 55.2886C262.524 55.5115 262.806 55.623 263.183 55.623C263.601 55.623 263.956 55.428 264.248 55.038L268.762 49.1246V54.411Z" fill="#ED115C"/>
<path fill-rule="evenodd" clip-rule="evenodd" d="M63.4209 22.2589V21.5704C63.337 20.1129 62.7198 18.7439 61.6814 17.7055C60.6201 16.6469 59.1653 15.9847 57.5618 15.9626H57.4331C54.2916 15.9865 51.7289 18.4447 51.5393 21.5451L51.5213 21.5262L51.5206 21.527C51.5252 21.6535 51.5274 21.7802 51.5274 21.9078V21.9137V21.914C51.5274 28.4614 46.2208 33.77 39.6739 33.7731C33.1268 33.77 27.8202 28.4614 27.8202 21.914V21.9137V21.9078C27.8202 21.7802 27.8233 21.6535 27.8271 21.527L27.8265 21.5262L27.8085 21.5451C27.6189 18.4447 25.056 15.9865 21.9146 15.9626H21.786C20.1826 15.9847 18.7277 16.6469 17.6663 17.7055C16.7303 18.6414 16.1368 19.8458 15.9673 21.1416V22.6903C16.1408 24.0231 16.7554 25.2178 17.6604 26.1227C18.7364 27.1988 20.2253 27.8653 21.8685 27.8653C28.3505 27.8653 33.6174 33.0665 33.7255 39.5228V39.5259L33.7252 39.529L33.7251 39.5319V39.5351V39.5382L33.7248 39.5411V39.5442L33.7247 39.5473L33.7245 39.5503V39.5534V39.5565L33.7243 39.5594V39.5626L33.7242 39.5686L33.7239 39.5717V39.5747V39.5778L33.7238 39.5809V39.584L33.7236 39.5871V39.5901V39.5932L33.7234 39.5963V39.5992V39.6023L33.7227 39.633V39.6361V39.639V39.6421L33.7225 39.6452V39.6484V39.6515L33.7221 39.7191L33.7225 39.7846V39.7877V39.7908L33.7227 39.794V39.7958V39.7971V39.8002V39.8033V39.8064L33.7229 39.8095V39.8126L33.723 39.8156V39.8189V39.8218V39.8251L33.7232 39.828L33.7234 39.8314V39.8343V39.8375V39.8405L33.7236 39.8436V39.8468V39.8499L33.7238 39.853V39.8561L33.7239 39.8592V39.8623V39.8654L33.7242 39.8685L33.7243 39.8779L33.7245 39.8808V39.8842L33.7247 39.8871V39.8902L33.7248 39.8933V39.8964L33.7251 39.8996V39.9027L33.7252 39.9058V39.9089L33.7255 39.9118V39.9151L33.7256 39.9181V39.9214L33.7252 39.938L33.726 39.9389C33.7824 41.495 34.4365 42.8989 35.4653 43.9278C36.4238 44.8864 37.7105 45.52 39.1417 45.647L39.2159 45.6532H39.2167L39.291 45.6586H39.2918L39.3668 45.663H39.3675L39.4429 45.6663H39.4434L39.5193 45.6689H39.5197L39.5959 45.6703H39.5963L39.673 45.6707L39.7496 45.6703H39.7498L39.8262 45.6689H39.8266L39.9024 45.6663H39.9031L39.9784 45.663H39.9791L40.0541 45.6586H40.0548L40.1295 45.6532H40.1303L40.2045 45.647C41.6357 45.5204 42.9222 44.8865 43.8808 43.9278C44.9098 42.8989 45.5636 41.495 45.6202 39.9389L45.6209 39.938L45.6205 39.9214V39.9181L45.6208 39.9151V39.9118L45.6209 39.9089V39.9058V39.9027L45.6212 39.8996L45.6213 39.8964V39.8933L45.6215 39.8902V39.8871V39.8842L45.6217 39.8808L45.6218 39.8779L45.6221 39.8685L45.6222 39.8654V39.8623V39.8592L45.6224 39.8561V39.853V39.8499L45.6226 39.8468V39.8436L45.6227 39.8405V39.8375V39.8343V39.8314L45.623 39.828V39.8251V39.8218L45.6231 39.8189V39.8156L45.6233 39.8126V39.8095V39.8064V39.8033V39.8002L45.6235 39.7971V39.7958V39.794L45.6237 39.7908V39.7877V39.7846L45.624 39.7191L45.6237 39.6515V39.6484V39.6452L45.6235 39.6421V39.639L45.6233 39.6361V39.633L45.6227 39.6023V39.5992V39.5963L45.6226 39.5932V39.5901L45.6224 39.5871V39.584V39.5809L45.6222 39.5778V39.5747V39.5717L45.6221 39.5686L45.6218 39.5626V39.5594L45.6217 39.5565L45.6215 39.5534V39.5503V39.5473L45.6213 39.5442V39.5411L45.6212 39.5382L45.6209 39.5351V39.5319V39.529L45.6208 39.5259V39.5228C45.7287 33.0665 50.9955 27.8653 57.4776 27.8653C59.1209 27.8653 60.6098 27.1988 61.6858 26.1227C62.6872 25.1214 63.3331 23.7649 63.4192 22.2589H63.4209Z" fill="#ED115C"/>
<path fill-rule="evenodd" clip-rule="evenodd" d="M57.3936 63.4754H57.557C59.0537 63.4552 60.5445 62.8759 61.6837 61.7364C62.7786 60.6416 63.3581 59.2247 63.4212 57.7917V57.264C63.3611 55.898 62.8323 54.549 61.8364 53.4777V53.4765L61.8243 53.4651L61.822 53.4627C61.7768 53.4145 61.7309 53.3665 61.6838 53.3196C61.6373 53.2729 61.5901 53.2277 61.5426 53.1831C57.0538 48.5414 57.1491 48.5067 61.7326 43.9231C62.6889 42.967 63.2519 41.7651 63.4211 40.5213V38.9084C63.2519 37.6637 62.6889 36.4624 61.7326 35.5062C60.6118 34.3854 59.1032 33.7676 57.5199 33.7676C55.995 33.7696 54.4725 34.3493 53.3157 35.5062C51.0795 37.7424 50.9948 41.3164 53.0632 43.6543L53.0372 43.6536V43.6545C53.1296 43.741 53.2211 43.8288 53.3115 43.919L53.3153 43.9231L53.3157 43.9232C57.9466 48.5544 57.8978 48.6963 53.2665 53.3278H53.2734C52.1941 54.4054 51.5234 55.8918 51.5234 57.5284C51.5234 59.0502 52.105 60.5744 53.267 61.7364C54.4063 62.8759 55.897 63.4552 57.3936 63.4754Z" fill="#ED115C"/>
<path fill-rule="evenodd" clip-rule="evenodd" d="M39.5915 63.4756H39.7567C41.3671 63.4536 42.8241 62.7912 43.8822 61.7334C44.9594 60.656 45.6256 59.1677 45.6256 57.5244C45.6256 55.8885 44.9589 54.4019 43.8822 53.3222L43.8791 53.3192L43.8761 53.3163C42.7964 52.2395 41.3098 51.5728 39.6739 51.5728C38.0307 51.5728 36.5423 52.239 35.465 53.3163C34.3888 54.3923 33.7222 55.8812 33.7222 57.5244C33.7222 59.1635 34.3888 60.65 35.465 61.7273L35.4711 61.7334C36.5303 62.7913 37.9851 63.4537 39.5915 63.4757V63.4756Z" fill="white"/>
<path fill-rule="evenodd" clip-rule="evenodd" d="M21.7832 63.4754H21.9465C23.4433 63.4552 24.934 62.8759 26.0732 61.7364C27.2353 60.5744 27.8168 59.0502 27.8168 57.5284C27.8168 56.0731 27.2863 54.6179 26.226 53.4777V53.4765L26.2139 53.4651L26.2116 53.4627C26.1663 53.4145 26.1205 53.3665 26.0734 53.3196C26.0268 53.2729 25.9797 53.2277 25.9322 53.1831C21.4434 48.5414 21.5387 48.5067 26.1221 43.9231C27.2841 42.7613 27.8655 41.237 27.8655 39.7152C27.8655 38.1915 27.2841 36.6682 26.1221 35.5062C25.0014 34.3854 23.4927 33.7676 21.9094 33.7676C20.3845 33.7696 18.8621 34.3493 17.7052 35.5062C16.6058 36.6057 16.0266 38.0288 15.9678 39.4692V39.9654C16.0231 41.289 16.5181 42.5979 17.4528 43.6543L17.4267 43.6536V43.6545C17.5192 43.741 17.6107 43.8288 17.701 43.919L17.7048 43.9231L17.7052 43.9232C22.3362 48.5544 22.2874 48.6963 17.6561 53.3278H17.6629C16.7635 54.2259 16.1479 55.4077 15.9679 56.7241V58.3344C16.1371 59.5783 16.7 60.7799 17.6565 61.7364C18.7958 62.8759 20.2866 63.4552 21.7832 63.4754Z" fill="#ED115C"/>
<path fill-rule="evenodd" clip-rule="evenodd" d="M39.5915 27.8655H39.7567C41.3671 27.8436 42.8241 27.1812 43.8822 26.1233C44.9594 25.046 45.6256 23.5576 45.6256 21.9143C45.6256 20.2785 44.9589 18.7918 43.8822 17.7121L43.8791 17.7091L43.8761 17.7062C42.7964 16.6295 41.3098 15.9626 39.6739 15.9626C38.0307 15.9626 36.5423 16.6289 35.465 17.7062C34.3888 18.7822 33.7222 20.2711 33.7222 21.9143C33.7222 23.5534 34.3888 25.0399 35.465 26.1172L35.4711 26.1233C36.5303 27.1812 37.9851 27.8436 39.5915 27.8655Z" fill="white"/>
<path fill-rule="evenodd" clip-rule="evenodd" d="M39.674 63.4755C41.3171 63.4755 42.8061 62.8086 43.8822 61.7326C44.9594 60.6553 45.6256 59.167 45.6256 57.5237C45.6256 55.8805 44.9589 54.3916 43.8829 53.3155H43.8768C42.7996 52.2395 41.3129 51.5728 39.674 51.5728C38.0349 51.5728 36.5482 52.2395 35.4711 53.3155H35.465C34.3888 54.3916 33.7222 55.8805 33.7222 57.5237C33.7222 59.1628 34.3888 60.6492 35.465 61.7266L35.4711 61.7327C36.5482 62.8087 38.0349 63.4755 39.674 63.4755V63.4755Z" fill="white"/>
<path fill-rule="evenodd" clip-rule="evenodd" d="M0 39.657V39.7737C0.0154667 40.9107 0.483195 41.9395 1.23016 42.6866C1.99077 43.4472 3.04166 43.9175 4.20189 43.9175C5.35701 43.9175 6.4067 43.4468 7.16906 42.6866L7.17134 42.6844L7.17365 42.6823C7.93394 41.9199 8.40472 40.8703 8.40472 39.7153C8.40472 38.555 7.93432 37.5041 7.17365 36.7435C6.41395 35.9836 5.36266 35.5129 4.20235 35.5129C3.0451 35.5129 1.9955 35.9836 1.23489 36.7435L1.23032 36.7478C0.483346 37.4956 0.0156178 38.5228 0.000151134 39.657H0Z" fill="white"/>
<path fill-rule="evenodd" clip-rule="evenodd" d="M71.0371 39.657V39.7737C71.0526 40.9107 71.5203 41.9395 72.2673 42.6866C73.0279 43.4472 74.0788 43.9175 75.239 43.9175C76.3941 43.9175 77.444 43.4468 78.2059 42.6866L78.2082 42.6844L78.2105 42.6823C78.9709 41.9199 79.4418 40.8703 79.4418 39.7153C79.4418 38.555 78.9717 37.5041 78.2105 36.7435C77.4509 35.9836 76.3995 35.5129 75.2395 35.5129C74.0822 35.5129 73.0326 35.9836 72.272 36.7435L72.2674 36.7478C71.5205 37.4956 71.0527 38.5228 71.0373 39.657H71.0371Z" fill="white"/>
<path fill-rule="evenodd" clip-rule="evenodd" d="M35.4722 4.14408V4.26072C35.4877 5.39779 35.9554 6.42651 36.7023 7.17356C37.4629 7.93425 38.5138 8.4045 39.6741 8.4045C40.8292 8.4045 41.8789 7.93387 42.6412 7.17356L42.6435 7.1715L42.6458 7.1693C43.4061 6.40701 43.8769 5.35741 43.8769 4.20229C43.8769 3.04206 43.4065 1.99116 42.6458 1.23055C41.8861 0.470628 40.8348 0 39.6745 0C38.5173 0 37.4677 0.470628 36.7071 1.23055L36.7025 1.23482C35.9555 1.98263 35.4879 3.00983 35.4723 4.14408H35.4722Z" fill="white"/>
<path fill-rule="evenodd" clip-rule="evenodd" d="M35.4722 75.1776V75.2942C35.4877 76.4311 35.9554 77.4597 36.7023 78.2071C37.4629 78.9675 38.5138 79.4384 39.6741 79.4384C40.8292 79.4384 41.8789 78.9675 42.6412 78.2071L42.6435 78.2049L42.6458 78.2026C43.4061 77.4399 43.8769 76.3908 43.8769 75.2355C43.8769 74.0753 43.4065 73.0244 42.6458 72.2638C41.8861 71.5038 40.8348 71.0332 39.6745 71.0332C38.5173 71.0332 37.4677 71.5038 36.7071 72.2638L36.7025 72.2683C35.9555 73.0161 35.4879 74.0433 35.4723 75.1776H35.4722Z" fill="white"/>
</svg>
