<svg width="34" height="24" viewBox="0 0 34 24" fill="none" xmlns="http://www.w3.org/2000/svg">
<path d="M2.86871 0H31.1313C32.7104 0 34 1.33305 34 2.96535V21.0347C34 22.667 32.7104 24 31.1313 24H2.86871C1.28961 24 0 22.667 0 21.0347V2.96535C0 1.33305 1.28961 0 2.86871 0ZM2.88736 1.70961C7.28431 6.27469 11.299 10.4441 15.4684 14.7714C16.3582 15.6912 17.6409 15.6884 18.5332 14.7749C22.7144 10.4317 26.7446 6.2474 31.1142 1.70943H2.88736V1.70961ZM32.341 2.84947L23.4105 12.1264L32.3461 20.4336V2.96535L32.341 2.84947ZM22.2441 13.3374L19.6998 15.9808C18.1529 17.5621 15.8471 17.5692 14.3036 15.979L11.7787 13.3567L2.3177 22.1527C2.4833 22.2404 2.6709 22.2904 2.86871 22.2904H31.1313C31.3402 22.2904 31.538 22.2351 31.7103 22.1378L22.2441 13.3374ZM10.6123 12.1457L1.659 2.84856L1.65389 2.96535V20.4747L10.6123 12.1457Z" fill="white"/>
</svg>
