<svg width="34" height="34" viewBox="0 0 34 34" fill="none" xmlns="http://www.w3.org/2000/svg">
<circle cx="17" cy="17" r="17" fill="#2F89CE"/>
<path d="M7.94849 17.3179L11.8569 18.7753L13.3805 23.6773C13.4467 24.0085 13.8442 24.0748 14.1091 23.876L16.2952 22.0875C16.4939 21.8887 16.8251 21.8887 17.0901 22.0875L20.9985 24.9359C21.2634 25.1347 21.6609 25.0022 21.7272 24.6709L24.6419 10.7598C24.7081 10.4286 24.3769 10.0974 24.0457 10.2299L7.94849 16.4568C7.55103 16.5892 7.55103 17.1854 7.94849 17.3179ZM13.1817 18.0466L20.866 13.3433C20.9985 13.2771 21.131 13.4758 20.9985 13.542L14.7053 19.4377C14.5066 19.6364 14.3079 19.9014 14.3079 20.2326L14.1091 21.8225C14.1091 22.0212 13.7779 22.0875 13.7117 21.8225L12.9168 18.9078C12.718 18.5765 12.8505 18.1791 13.1817 18.0466Z" fill="white"/>
</svg>
