<svg width="34" height="34" viewBox="0 0 34 34" fill="none" xmlns="http://www.w3.org/2000/svg">
<ellipse cx="17.5" cy="16.5" rx="14.5" ry="11.5" fill="white"/>
<path d="M17 0C7.61115 0 0 7.61115 0 17C0 26.3888 7.61115 34 17 34C26.3888 34 34 26.3888 34 17C34 7.61115 26.3888 0 17 0ZM26.9763 23.2117L24.0438 23.2519C24.0438 23.2519 23.413 23.3772 22.5854 22.8046C21.4871 22.0507 20.4537 20.0935 19.6485 20.344C18.8432 20.5945 18.8567 22.3572 18.8567 22.3572C18.8592 22.5639 18.7958 22.7661 18.6755 22.9343C18.5062 23.0794 18.2974 23.1705 18.076 23.196H16.7764C16.7764 23.196 13.8685 23.3683 11.3297 20.7154C8.53812 17.8343 6.07982 12.0789 6.07982 12.0789C6.07982 12.0789 5.93506 11.7451 6.09324 11.5197C6.22997 11.3249 6.56718 11.3039 6.73745 11.296C7.47143 11.2617 9.67665 11.2759 9.67665 11.2759C9.86113 11.2713 9.98511 11.281 10.2135 11.381C10.4098 11.4781 10.5587 11.6226 10.6542 11.8552C10.9934 12.7001 11.3872 13.522 11.833 14.3158C13.1438 16.5817 13.7545 17.076 14.1996 16.8344C14.846 16.481 14.647 13.6335 14.647 13.6335C14.647 13.6335 14.647 12.5979 14.3204 12.1393C14.0745 11.8521 13.7278 11.6704 13.3518 11.6316C13.1751 11.6069 13.4659 11.1976 13.8417 11.0142C14.4054 10.7368 15.4031 10.7368 16.5796 10.7368C17.0974 10.7173 17.6153 10.77 18.1185 10.8934C19.2012 11.1551 18.8343 12.1617 18.8343 14.5819C18.8343 15.3559 18.6934 16.4475 19.2526 16.8188C19.4942 16.9731 20.0803 16.8412 21.5521 14.3448C22.0216 13.5187 22.4291 12.659 22.7712 11.7724C22.837 11.6315 22.937 11.5093 23.062 11.4168C23.1941 11.351 23.3427 11.3253 23.4892 11.3429L26.7908 11.3205C26.7908 11.3205 27.7817 11.202 27.9428 11.6516C28.1038 12.1012 27.5714 13.2174 26.2226 15.0068C24.0082 17.9594 23.7621 17.691 25.6008 19.3888C27.3567 21.0194 27.7214 21.8135 27.7817 21.9119C28.5108 23.1155 26.9763 23.2117 26.9763 23.2117Z" fill="#4C75A3"/>
</svg>
