<svg width="34" height="34" viewBox="0 0 34 34" fill="none" xmlns="http://www.w3.org/2000/svg">
<circle cx="17" cy="17" r="11" fill="white"/>
<path fill-rule="evenodd" clip-rule="evenodd" d="M25.5 17.6418C25.5 19.0177 25.33 20.3936 25.33 20.3936C25.33 20.3936 25.1643 21.5645 24.6543 22.0809C24.0083 22.7577 23.2836 22.7609 22.9511 22.8002C20.5721 22.9723 17 22.9776 17 22.9776C17 22.9776 12.58 22.9373 11.22 22.8076C10.8418 22.7364 9.99175 22.7577 9.34575 22.0809C8.83575 21.5645 8.67 20.3936 8.67 20.3936C8.67 20.3936 8.5 19.0177 8.5 17.6418V16.3519C8.5 14.9759 8.67 13.6011 8.67 13.6011C8.67 13.6011 8.83575 12.4291 9.34575 11.9128C9.99175 11.2359 10.7164 11.2327 11.0489 11.1934C13.4279 11.0213 16.9968 11.0213 16.9968 11.0213H17.0032C17.0032 11.0213 20.5721 11.0213 22.9511 11.1934C23.2836 11.2327 24.0083 11.2359 24.6543 11.9128C25.1643 12.4291 25.33 13.6011 25.33 13.6011C25.33 13.6011 25.5 14.9759 25.5 16.3519V17.6418ZM17 0C7.61069 0 0 7.61069 0 17C0 26.3883 7.61069 34 17 34C26.3893 34 34 26.3883 34 17C34 7.61069 26.3893 0 17 0Z" fill="#EA412C"/>
<path fill-rule="evenodd" clip-rule="evenodd" d="M15.2452 19.2047L19.8384 16.8247L15.2441 14.4277L15.2452 19.2047Z" fill="#EA412C"/>
</svg>
